PathFileType	4	(X/Y/Z)	/Users/itak/Documents/Research/Walk-IL/dataset/trc/00052_00006.trc
DataRate	CameraRate	NumFrames	NumMarkers	Units	OrigDataRate	OrigDataStartFrame	OrigNumFrames
100.000000	100.000000	4	53	mm	100.000000	463	530
Frame#	Time	RPSI			LPSI			L3			STRN			T10			C7			CLAV			RBAK			LBAK			LSHO			LUPA			LAEL			LAOL			LWTS			LWPS			LFRA			LIFD			LHPS			LHTS			RSHO			RUPA			RAEL			RAOL			RWTS			RWPS			RFRA			RIFD			RHTS			RHPS			RBHD			LFHD			RFHD			LBHD			LHIP			RHIP			RASI			LASI			LKNE			LTHI			LANK			LTIP			LTOE			LMT1			LMT5			LHEE			RKNE			RTHI			RANK			RTIP			RTOE			RMT1			RMT5			RHEE			
		X1	Y1	Z1	X2	Y2	Z2	X3	Y3	Z3	X4	Y4	Z4	X5	Y5	Z5	X6	Y6	Z6	X7	Y7	Z7	X8	Y8	Z8	X9	Y9	Z9	X10	Y10	Z10	X11	Y11	Z11	X12	Y12	Z12	X13	Y13	Z13	X14	Y14	Z14	X15	Y15	Z15	X16	Y16	Z16	X17	Y17	Z17	X18	Y18	Z18	X19	Y19	Z19	X20	Y20	Z20	X21	Y21	Z21	X22	Y22	Z22	X23	Y23	Z23	X24	Y24	Z24	X25	Y25	Z25	X26	Y26	Z26	X27	Y27	Z27	X28	Y28	Z28	X29	Y29	Z29	X30	Y30	Z30	X31	Y31	Z31	X32	Y32	Z32	X33	Y33	Z33	X34	Y34	Z34	X35	Y35	Z35	X36	Y36	Z36	X37	Y37	Z37	X38	Y38	Z38	X39	Y39	Z39	X40	Y40	Z40	X41	Y41	Z41	X42	Y42	Z42	X43	Y43	Z43	X44	Y44	Z44	X45	Y45	Z45	X46	Y46	Z46	X47	Y47	Z47	X48	Y48	Z48	X49	Y49	Z49	X50	Y50	Z50	X51	Y51	Z51	X52	Y52	Z52	X53	Y53	Z53	

464	4.63	-660.7805786132812	1028.810424804688	-104.4727401733398	-680.1948852539062	1018.784301757812	-279.1888427734375	-669.2171630859375	1081.469970703125	-198.7848510742188	-422.0603637695312	1284.480102539062	-209.797607421875	-688.9218139648438	1217.052124023438	-200.6266784667969	-634.1160278320312	1483.96826171875	-207.6123504638672	-453.1319885253906	1399.053100585938	-211.5431213378906	-689.6265869140625	1345.100463867188	-128.916748046875	-658.5365600585938	1445.255493164062	-307.8036804199219	-557.2891235351562	1450.712768554688	-383.9560546875	-573.5211181640625	1321.567626953125	-459.5547485351562	-547.1751098632812	1105.37841796875	-471.655517578125	-610.4486083984375	1092.62548828125	-386.9357604980469	-455.4079284667969	868.2461547851562	-399.0982971191406	-511.2479858398438	855.8336791992188	-460.5779113769531	-524.1614990234375	996.6595458984375	-475.6166687011719	-440.212158203125	681.9208984375	-377.0270690917969	-477.9631652832031	774.7395629882812	-453.0621948242188	-432.6015319824219	786.1334228515625	-399.038818359375	-562.6716918945312	1451.030883789062	-33.78397369384766	-571.0540771484375	1382.328002929688	30.36308860778809	-604.062744140625	1120.212036132812	63.8016357421875	-588.4193725585938	1096.35791015625	-31.91020774841309	-465.656982421875	867.5994262695312	19.82405090332031	-533.87109375	852.1515502929688	74.15306091308594	-591.9286499023438	1039.117065429688	71.73012542724609	-461.0884094238281	678.093017578125	3.338668346405029	-444.2560424804688	764.3229370117188	18.83782958984375	-498.3910522460938	761.6608276367188	73.77925872802734	-597.3956298828125	1666.252563476562	-274.4243469238281	-438.4962768554688	1698.818115234375	-131.8588714599609	-425.0419006347656	1709.93017578125	-256.6066589355469	-602.10302734375	1647.449096679688	-137.4056243896484	-580.1365966796875	956.8660278320312	-374.2984924316406	-586.8531494140625	962.1029052734375	-30.22625350952148	-464.8713684082031	981.3543701171875	-61.15202713012695	-465.3918151855469	970.3435668945312	-328.9302978515625	-501.758056640625	494.4037780761719	-337.6741943359375	-533.2164916992188	635.9714965820312	-369.2272033691406	-667.9879150390625	50.92333602905273	-360.2059631347656	-593.2490844726562	259.3576965332031	-362.7730712890625	-463.3641967773438	41.78707122802734	-370.2384338378906	-507.1465148925781	42.38337326049805	-312.0861206054688	-568.4577026367188	38.3742561340332	-406.8287963867188	-714.3507690429688	47.77804565429688	-280.5931396484375	-519.1764526367188	516.4628295898438	-66.46335601806641	-506.966064453125	786.6043701171875	-31.17990112304688	-625.6192626953125	43.69423294067383	-85.37614440917969	-544.8734130859375	393.1934509277344	-65.46906280517578	-409.8163757324219	41.67228698730469	-119.0308227539062	-470.3508605957031	44.18463516235352	-161.0272369384766	-500.3751220703125	50.38950347900391	-68.43228912353516	-673.278076171875	44.64761734008789	-143.1844024658203	
465	4.64	-660.8621215820312	1028.660522460938	-105.3697891235352	-680.1652221679688	1018.558349609375	-280.0814514160156	-669.1892700195312	1081.21826171875	-199.7333221435547	-422.4153442382812	1284.508056640625	-210.6706695556641	-689.2318115234375	1216.835327148438	-201.610107421875	-634.6958618164062	1483.8046875	-208.5666961669922	-453.6754760742188	1399.024536132812	-212.392578125	-690.0946655273438	1344.859985351562	-129.9122314453125	-658.9862670898438	1445.091918945312	-308.7674255371094	-557.7046508789062	1450.65625	-384.8716430664062	-573.8244018554688	1321.485961914062	-460.4867248535156	-547.5520629882812	1105.315185546875	-472.5126037597656	-610.8547973632812	1092.583984375	-387.8565979003906	-456.1672668457031	867.996826171875	-399.9627075195312	-511.9204406738281	855.7097778320312	-461.536865234375	-524.6353149414062	996.5679931640625	-476.4938659667969	-441.3094177246094	681.6824951171875	-377.9873046875	-478.806884765625	774.5484619140625	-454.0336608886719	-433.5450134277344	785.8148803710938	-399.8992309570312	-563.3390502929688	1450.916015625	-34.69047927856445	-571.6864013671875	1382.2109375	29.45241546630859	-604.158935546875	1119.953125	62.76688766479492	-588.4234008789062	1096.237670898438	-32.96063995361328	-464.732666015625	867.9420166015625	18.43079566955566	-532.9270629882812	852.0537109375	72.64195251464844	-591.7833862304688	1038.815673828125	70.58751678466797	-459.263427734375	678.5025024414062	1.546245336532593	-442.8399047851562	764.7744750976562	17.25357246398926	-497.0203857421875	761.7681884765625	72.10836029052734	-597.9009399414062	1666.233276367188	-275.320556640625	-439.0765075683594	1698.717895507812	-132.6664733886719	-425.515869140625	1709.893676757812	-257.4144287109375	-602.7318725585938	1647.440551757812	-138.3208770751953	-580.0942993164062	956.6502685546875	-375.0995178222656	-586.8875732421875	962.090576171875	-31.0504093170166	-464.9201354980469	981.4716186523438	-61.90732955932617	-465.2959594726562	970.2802124023438	-329.71875	-501.3723449707031	494.2709350585938	-338.0183715820312	-532.9828491210938	635.8452758789062	-369.7036437988281	-667.9734497070312	50.91822814941406	-360.1923828125	-592.9176025390625	259.1928100585938	-362.904052734375	-463.34521484375	41.77236175537109	-370.2254638671875	-507.1285400390625	42.36135101318359	-312.0699768066406	-568.4527587890625	38.37040328979492	-406.82470703125	-714.3548583984375	47.79965972900391	-280.5859985351562	-518.9271850585938	516.510009765625	-66.99076080322266	-506.7414245605469	786.7017211914062	-31.73237800598145	-625.6251220703125	43.77055358886719	-85.44898223876953	-544.6533203125	393.2021789550781	-65.84468078613281	-409.7835693359375	41.64624786376953	-119.017333984375	-470.3018798828125	44.14407730102539	-161.0397491455078	-500.3651428222656	50.39915084838867	-68.47052764892578	-673.20654296875	44.66703033447266	-143.2675018310547	
466	4.65	-660.9126586914062	1028.522705078125	-106.2411956787109	-680.1121826171875	1018.351379394531	-280.9462890625	-669.1417846679688	1080.982543945312	-200.6427764892578	-422.736328125	1284.5224609375	-211.5314636230469	-689.5181274414062	1216.619262695312	-202.5964965820312	-635.2297973632812	1483.646484375	-209.5116882324219	-454.1676330566406	1398.994262695312	-213.2366943359375	-690.541015625	1344.623413085938	-130.9019012451172	-659.39892578125	1444.920532226562	-309.7255554199219	-558.0845336914062	1450.580810546875	-385.7814331054688	-574.0927734375	1321.38720703125	-461.4111328125	-547.9149169921875	1105.231689453125	-473.376220703125	-611.2352294921875	1092.52685546875	-388.7881469726562	-456.9234924316406	867.7252197265625	-400.8172607421875	-512.5947265625	855.5698852539062	-462.4848937988281	-525.1053466796875	996.45166015625	-477.3707275390625	-442.3717041015625	681.4386596679688	-378.9212646484375	-479.6154479980469	774.3358154296875	-454.99169921875	-434.4682006835938	785.4730224609375	-400.7459716796875	-563.9751586914062	1450.792602539062	-35.59076309204102	-572.2887573242188	1382.094116210938	28.55213737487793	-604.2499389648438	1119.703002929688	61.78573989868164	-588.4640502929688	1096.112670898438	-33.96755218505859	-463.8110656738281	868.3030395507812	17.0634937286377	-532.008056640625	851.9635009765625	71.17240142822266	-591.6500244140625	1038.519409179688	69.49627685546875	-457.4701538085938	678.926513671875	-0.2331297993659973	-441.4515991210938	765.2403564453125	15.68307399749756	-495.625732421875	761.8780517578125	70.43726348876953	-598.3736572265625	1666.211059570312	-276.2081298828125	-439.6311340332031	1698.621826171875	-133.4687957763672	-425.9779357910156	1709.852661132812	-258.2159729003906	-603.3142700195312	1647.408813476562	-139.2309875488281	-580.0186157226562	956.4476318359375	-375.8717041015625	-586.8704223632812	962.085205078125	-31.85791397094727	-464.9210815429688	981.57421875	-62.67330551147461	-465.1786499023438	970.210693359375	-330.5178527832031	-501.0014038085938	494.1373596191406	-338.3849792480469	-532.7482299804688	635.73291015625	-370.1931762695312	-667.9588012695312	50.90670776367188	-360.1862182617188	-592.6079711914062	259.0390014648438	-363.0562744140625	-463.3233337402344	41.75292205810547	-370.2153625488281	-507.1118469238281	42.34421920776367	-312.0579833984375	-568.445556640625	38.36055374145508	-406.8256530761719	-714.360107421875	47.82853698730469	-280.5877075195312	-518.7269897460938	516.5543823242188	-67.49790954589844	-506.4935302734375	786.8268432617188	-32.3288688659668	-625.6250610351562	43.83623886108398	-85.51021575927734	-544.50146484375	393.2157897949219	-66.20636749267578	-409.7504272460938	41.62192153930664	-119.0027770996094	-470.2608337402344	44.10904312133789	-161.0467681884766	-500.3578491210938	50.40861511230469	-68.50171661376953	-673.139892578125	44.6849479675293	-143.3455657958984	
467	4.66	-660.9442749023438	1028.398803710938	-107.0915832519531	-680.0419921875	1018.169250488281	-281.7873840332031	-669.1039428710938	1080.7724609375	-201.5237274169922	-423.0261840820312	1284.528076171875	-212.3789672851562	-689.786865234375	1216.410034179688	-203.5821228027344	-635.71630859375	1483.496459960938	-210.4449615478516	-454.6009826660156	1398.971069335938	-214.0783843994141	-690.9624633789062	1344.395141601562	-131.8818359375	-659.7781372070312	1444.745727539062	-310.6744079589844	-558.4332885742188	1450.489501953125	-386.6839904785156	-574.33349609375	1321.277587890625	-462.326416015625	-548.2647705078125	1105.1298828125	-474.2451171875	-611.6060791015625	1092.460083007812	-389.7308959960938	-457.6670837402344	867.441650390625	-401.6659240722656	-513.2683715820312	855.4221801757812	-463.4211730957031	-525.5655517578125	996.3167114257812	-478.2466735839844	-443.3929748535156	681.1906127929688	-379.832275390625	-480.3910827636719	774.1116943359375	-455.9374389648438	-435.3530578613281	785.1245727539062	-401.5918273925781	-564.574951171875	1450.66796875	-36.48380661010742	-572.8544311523438	1381.980712890625	27.66284942626953	-604.35302734375	1119.463500976562	60.84731674194336	-588.5306396484375	1095.982421875	-34.93064117431641	-462.9006958007812	868.6787109375	15.71908760070801	-531.1151123046875	851.8839111328125	69.74715423583984	-591.5244750976562	1038.232788085938	68.45552062988281	-455.7225036621094	679.3632202148438	-1.993600845336914	-440.109375	765.7214965820312	14.12606525421143	-494.2319030761719	761.9878540039062	68.78250885009766	-598.8145141601562	1666.182373046875	-277.087646484375	-440.1593017578125	1698.533325195312	-134.2658233642578	-426.4296875	1709.80517578125	-259.0118103027344	-603.8450927734375	1647.358642578125	-140.1330871582031	-579.8981323242188	956.26220703125	-376.6164245605469	-586.8279418945312	962.08984375	-32.65517044067383	-464.8746948242188	981.662841796875	-63.44748306274414	-465.0469360351562	970.1412353515625	-331.3269653320312	-500.6593933105469	494.0064697265625	-338.7623901367188	-532.5171508789062	635.634765625	-370.6870422363281	-667.946044921875	50.89066696166992	-360.1863403320312	-592.332763671875	258.8987426757812	-363.2260131835938	-463.2997741699219	41.73041152954102	-370.2069091796875	-507.0968627929688	42.33015060424805	-312.0480651855469	-568.4373779296875	38.34779739379883	-406.8291931152344	-714.3674926757812	47.86144638061523	-280.5966491699219	-518.5632934570312	516.6008911132812	-67.99309539794922	-506.2535705566406	786.971923828125	-32.98320007324219	-625.6171875	43.89311981201172	-85.56269073486328	-544.4186401367188	393.236083984375	-66.56478118896484	-409.7162780761719	41.60050964355469	-118.9881820678711	-470.2264404296875	44.07780838012695	-161.0504760742188	-500.3534240722656	50.41898345947266	-68.52890014648438	-673.0789794921875	44.70221328735352	-143.4206237792969	
